<svg width="112" height="172" viewBox="0 0 112 172" fill="none" xmlns="http://www.w3.org/2000/svg">
<path fill-rule="evenodd" clip-rule="evenodd" d="M64.9327 7.49626C57.6427 24.9493 58.7667 38.8133 67.8657 43.6823C69.9277 44.7863 69.9417 45.2303 68.1957 54.0373C67.8217 55.9253 68.0567 56.5723 69.1167 56.5723C71.9417 56.5723 72.7937 52.7533 72.7717 40.1803C72.7487 26.5643 74.0377 24.9763 74.9227 37.5283C75.5287 46.1133 75.6037 46.2423 78.6997 44.0733C88.5957 37.1423 86.1947 16.6603 74.0337 4.26827C68.1267 -1.75073 68.9117 -2.02974 64.9327 7.49626ZM33.1077 39.4743C4.08871 54.0013 -7.85929 81.5883 5.37171 103.513C9.49471 110.345 9.86671 110.225 12.8367 101.11C15.4917 92.9623 20.8207 81.1353 21.5207 81.8353C21.7347 82.0493 20.0407 87.9613 17.7567 94.9743C9.74972 119.559 9.08672 130.305 15.5777 130.305C15.7947 130.305 16.2507 127.09 16.5907 123.162C17.7087 110.261 17.6697 110.349 23.5497 107.216C41.1327 97.8443 48.1477 80.5813 45.7417 52.5983C44.0267 32.6523 44.9077 33.5673 33.1077 39.4743ZM92.1667 82.1433C48.6437 108.154 30.3837 129.854 34.3897 150.807C35.0427 154.223 15.7857 167.171 10.0527 167.171C7.93471 167.171 9.17272 169.34 12.1057 170.768C19.1607 174.203 32.9957 165.554 52.8627 145.288C60.5927 137.402 66.9177 131.251 66.9177 131.618C66.9177 132.941 57.5357 144.708 49.7997 153.088L41.9037 161.641H50.9917C80.4207 161.641 103.148 141.115 109.907 108.433C111.538 100.546 111.37 74.8493 109.676 73.1553C109.059 72.5373 103.251 75.5183 92.1667 82.1433Z" fill="#034074"/>
</svg>
