<svg id="svg" version="1.1" xmlns="http://www.w3.org/2000/svg" xmlns:xlink="http://www.w3.org/1999/xlink" width="400" height="558.5253456221199" viewBox="0, 0, 400,558.5253456221199"><g id="svgg"><path id="path0" d="M294.789 13.597 C 287.499 31.050,288.623 44.914,297.722 49.783 C 299.784 50.887,299.798 51.331,298.052 60.138 C 297.678 62.026,297.913 62.673,298.973 62.673 C 301.798 62.673,302.650 58.854,302.628 46.281 C 302.605 32.665,303.894 31.077,304.779 43.629 C 305.385 52.214,305.460 52.343,308.556 50.174 C 318.452 43.243,316.051 22.761,303.890 10.369 C 297.983 4.350,298.768 4.071,294.789 13.597 M262.964 45.575 C 233.945 60.102,221.997 87.689,235.228 109.614 C 239.351 116.446,239.723 116.326,242.693 107.211 C 245.348 99.063,250.677 87.236,251.377 87.936 C 251.591 88.150,249.897 94.062,247.613 101.075 C 239.606 125.660,238.943 136.406,245.434 136.406 C 245.651 136.406,246.107 133.191,246.447 129.263 C 247.565 116.362,247.526 116.450,253.406 113.317 C 270.989 103.945,278.004 86.682,275.598 58.699 C 273.883 38.753,274.764 39.668,262.964 45.575 M50.360 79.845 C 40.437 82.893,34.101 92.967,34.101 105.697 C 34.101 111.213,33.986 111.521,31.912 111.521 C 30.709 111.521,28.427 111.780,26.843 112.097 L 23.963 112.673 23.963 120.392 L 23.963 128.111 29.032 128.111 L 34.101 128.111 34.101 156.221 L 34.101 184.332 46.047 184.332 L 57.993 184.332 57.918 156.452 L 57.844 128.571 65.788 128.305 L 73.733 128.039 73.733 119.319 L 73.733 110.599 65.438 110.599 L 57.143 110.599 57.143 107.344 C 57.143 98.579,60.373 96.159,70.894 97.042 L 77.069 97.559 78.683 89.796 C 79.570 85.526,80.071 81.668,79.795 81.222 C 78.018 78.346,58.251 77.421,50.360 79.845 M322.023 88.244 C 278.500 114.255,260.240 135.955,264.246 156.908 C 264.899 160.324,245.642 173.272,239.909 173.272 C 237.791 173.272,239.029 175.441,241.962 176.869 C 249.017 180.304,262.852 171.655,282.719 151.389 C 290.449 143.503,296.774 137.352,296.774 137.719 C 296.774 139.042,287.392 150.809,279.656 159.189 L 271.760 167.742 280.848 167.742 C 310.277 167.742,333.004 147.216,339.763 114.534 C 341.394 106.647,341.226 80.950,339.532 79.256 C 338.915 78.638,333.107 81.619,322.023 88.244 M91.244 111.067 C 83.896 112.858,77.155 115.941,77.639 117.289 C 77.864 117.918,78.818 121.544,79.759 125.346 C 80.699 129.147,81.509 132.345,81.558 132.451 C 81.606 132.557,84.117 131.880,87.136 130.945 C 103.374 125.918,110.599 128.258,110.599 138.545 L 110.599 143.570 101.152 143.952 C 83.374 144.670,74.728 151.547,74.675 165.012 C 74.608 181.932,94.501 191.615,110.986 182.686 L 115.859 180.047 118.311 182.156 C 122.015 185.343,127.037 186.505,133.918 185.768 C 142.800 184.817,143.188 184.339,142.252 175.525 L 141.475 168.203 137.788 167.742 L 134.101 167.281 133.641 147.005 C 133.112 123.750,132.174 120.260,125.072 115.115 C 117.791 109.841,103.359 108.114,91.244 111.067 M149.309 119.355 L 149.309 128.111 163.134 128.111 C 170.737 128.111,176.959 128.375,176.959 128.699 C 176.959 129.022,170.323 138.568,162.212 149.911 L 147.465 170.536 147.465 177.434 L 147.465 184.332 177.419 184.332 L 207.373 184.332 207.373 176.037 L 207.373 167.742 191.244 167.742 C 182.373 167.742,175.115 167.510,175.115 167.227 C 175.115 166.944,181.959 157.134,190.323 145.429 L 205.530 124.145 205.530 117.372 L 205.530 110.599 177.419 110.599 L 149.309 110.599 149.309 119.355 M110.411 161.935 L 110.685 167.648 106.887 168.671 C 99.974 170.532,95.594 167.042,97.135 160.901 C 97.890 157.891,102.280 155.693,106.912 156.004 L 110.138 156.221 110.411 161.935 M185.560 201.645 C 182.940 202.584,179.284 204.506,177.435 205.917 C 173.658 208.797,173.846 208.830,172.632 205.069 L 171.739 202.304 161.907 202.043 L 152.074 201.781 152.074 238.678 L 152.074 275.576 164.055 275.576 L 176.037 275.576 176.037 249.449 L 176.037 223.321 179.851 221.601 C 185.708 218.960,191.416 219.294,194.117 222.435 L 196.313 224.988 196.313 250.282 L 196.313 275.576 208.295 275.576 L 220.276 275.576 220.276 249.449 L 220.276 223.321 224.164 221.569 C 229.612 219.112,235.332 219.254,237.993 221.914 C 240.063 223.983,240.096 224.366,240.364 249.794 L 240.635 275.576 252.644 275.576 L 264.653 275.576 264.324 246.313 C 263.960 213.977,263.632 212.063,257.479 206.270 C 249.211 198.486,231.935 198.178,219.913 205.600 L 215.402 208.384 213.000 206.084 C 207.305 200.629,194.278 198.522,185.560 201.645 M68.203 228.526 C 68.203 257.823,68.755 262.457,72.932 268.224 C 79.915 277.863,97.810 279.613,110.046 271.854 C 112.495 270.301,114.601 269.155,114.727 269.308 C 114.852 269.460,115.357 270.829,115.847 272.350 L 116.740 275.115 126.573 275.377 L 136.406 275.638 136.406 238.741 L 136.406 201.843 124.424 201.843 L 112.442 201.843 112.442 227.695 L 112.442 253.546 108.525 255.324 C 103.418 257.643,97.626 257.667,94.803 255.382 L 92.627 253.621 92.355 227.732 L 92.084 201.843 80.143 201.843 L 68.203 201.843 68.203 228.526 M53.917 265.122 C 51.889 265.284,46.809 265.667,42.627 265.971 L 35.023 266.525 35.023 312.574 L 35.023 358.622 40.864 361.356 C 65.230 372.758,92.390 366.327,101.477 347.005 C 116.542 314.972,90.961 278.367,64.030 293.419 C 61.635 294.757,59.521 295.853,59.331 295.853 C 59.141 295.853,58.986 288.802,58.986 280.184 C 58.986 271.567,58.675 264.586,58.295 264.671 C 57.915 264.756,55.945 264.959,53.917 265.122 M316.148 271.659 C 316.162 273.498,319.595 331.726,319.789 333.410 C 319.804 333.537,323.737 333.641,328.530 333.641 L 337.244 333.641 337.705 330.645 C 338.171 327.624,341.060 276.365,341.030 271.659 L 341.014 269.124 328.571 269.124 L 316.129 269.124 316.148 271.659 M139.105 291.532 C 103.784 301.479,105.100 358.203,140.829 365.784 C 150.826 367.905,165.340 366.427,174.559 362.349 L 178.654 360.538 176.429 353.310 C 175.205 349.335,174.025 345.612,173.807 345.035 C 173.525 344.291,171.594 344.492,167.140 345.727 C 151.269 350.127,139.623 346.540,137.687 336.654 L 137.104 333.676 157.657 333.428 L 178.209 333.180 179.017 330.415 C 186.590 304.478,165.634 284.062,139.105 291.532 M222.758 292.140 C 220.321 293.092,216.958 294.916,215.285 296.192 L 212.242 298.513 211.153 294.878 L 210.064 291.244 200.413 291.244 L 190.762 291.244 191.003 328.341 L 191.244 365.438 202.765 365.438 L 214.286 365.438 214.531 339.349 L 214.775 313.261 218.678 311.489 C 225.304 308.482,230.146 309.146,234.281 313.630 C 234.379 313.737,234.690 325.438,234.972 339.631 L 235.484 365.438 247.005 365.438 L 258.525 365.438 258.770 339.349 L 259.015 313.261 262.918 311.489 C 268.371 309.014,273.025 309.158,276.216 311.900 L 278.802 314.123 279.263 339.780 L 279.724 365.438 291.244 365.438 L 302.765 365.438 302.765 337.327 C 302.765 304.498,302.345 302.165,295.316 295.979 C 286.517 288.233,269.112 288.314,257.574 296.155 L 254.095 298.519 250.496 295.438 C 244.351 290.178,231.645 288.668,222.758 292.140 M155.262 310.359 C 157.008 312.242,157.604 313.883,157.604 316.811 L 157.604 320.737 147.465 320.737 C 136.168 320.737,136.160 320.732,138.746 314.487 C 141.673 307.416,150.490 305.212,155.262 310.359 M73.247 310.069 C 77.759 311.954,80.380 317.524,80.907 326.346 C 81.830 341.778,76.860 348.748,65.322 348.204 L 59.447 347.926 59.197 329.830 L 58.948 311.733 62.423 310.292 C 66.817 308.470,69.298 308.419,73.247 310.069 M322.963 342.324 C 313.989 346.231,313.441 361.871,322.151 365.510 C 332.374 369.782,341.329 364.126,341.385 353.365 C 341.435 343.592,332.437 338.199,322.963 342.324 M69.124 414.286 L 69.124 429.493 71.429 429.493 C 73.571 429.493,73.733 429.178,73.733 425.009 L 73.733 420.524 80.368 420.049 C 88.929 419.437,92.166 416.495,92.166 409.328 C 92.166 401.559,88.123 399.078,75.461 399.078 L 69.124 399.078 69.124 414.286 M100.461 414.286 L 100.461 429.493 109.217 429.493 C 117.942 429.493,117.972 429.485,117.972 427.189 C 117.972 424.951,117.788 424.885,111.521 424.885 L 105.069 424.885 105.069 411.982 L 105.069 399.078 102.765 399.078 L 100.461 399.078 100.461 414.286 M130.730 403.393 C 129.663 405.835,126.770 412.368,124.303 417.910 C 119.121 429.546,119.132 429.493,121.949 429.493 C 123.480 429.493,124.517 428.582,125.621 426.267 L 127.159 423.041 134.996 423.041 L 142.832 423.041 144.180 426.267 C 145.234 428.789,146.054 429.493,147.941 429.493 C 150.869 429.493,151.100 430.354,143.489 412.903 C 136.503 396.885,134.294 395.238,130.730 403.393 M148.387 401.382 C 148.387 403.561,148.664 403.687,153.456 403.687 L 158.525 403.687 158.525 416.590 L 158.525 429.493 160.829 429.493 L 163.134 429.493 163.134 416.590 L 163.134 403.687 167.742 403.687 C 172.043 403.687,172.350 403.533,172.350 401.382 L 172.350 399.078 160.369 399.078 L 148.387 399.078 148.387 401.382 M183.589 400.636 C 182.124 403.456,171.429 428.348,171.429 428.938 C 171.429 431.141,175.888 429.089,177.234 426.267 L 178.772 423.041 186.609 423.041 L 194.445 423.041 195.793 426.267 C 197.285 429.837,202.562 431.342,201.449 427.880 C 195.388 409.033,186.372 395.280,183.589 400.636 M209.217 414.286 L 209.217 429.493 211.521 429.493 C 213.742 429.493,213.825 429.278,213.825 423.502 L 213.825 417.512 220.737 417.512 C 227.496 417.512,227.650 417.460,227.650 415.207 C 227.650 412.954,227.496 412.903,220.737 412.903 L 213.825 412.903 213.825 408.295 L 213.825 403.687 221.198 403.687 C 228.449 403.687,228.571 403.648,228.571 401.382 L 228.571 399.078 218.894 399.078 L 209.217 399.078 209.217 414.286 M243.922 400.374 C 227.739 406.366,232.360 428.938,249.770 428.938 C 259.096 428.938,264.607 423.905,265.242 414.807 C 266.003 403.928,254.801 396.346,243.922 400.374 M274.654 414.176 L 274.654 429.493 276.959 429.493 C 279.109 429.493,279.263 429.186,279.263 424.885 L 279.263 420.276 283.677 420.276 C 288.002 420.276,288.147 420.371,290.783 424.885 C 293.007 428.692,293.927 429.493,296.079 429.493 C 298.974 429.493,298.898 429.149,294.653 423.063 L 292.418 419.858 295.004 417.443 C 303.899 409.134,297.998 399.879,283.399 399.241 L 274.654 398.858 274.654 414.176 M307.834 414.286 C 307.834 428.799,307.917 429.493,309.649 429.493 C 311.342 429.493,311.481 428.732,311.723 418.203 L 311.982 406.912 316.829 416.359 C 320.203 422.937,322.169 425.806,323.301 425.806 C 324.438 425.806,326.358 422.968,329.690 416.359 L 334.455 406.912 334.508 418.203 L 334.562 429.493 336.866 429.493 L 339.171 429.493 339.171 414.286 L 339.171 399.078 336.413 399.078 C 333.823 399.078,333.340 399.708,328.447 409.447 L 323.238 419.816 318.151 409.447 C 313.452 399.868,312.865 399.078,310.449 399.078 L 307.834 399.078 307.834 414.286 M357.783 400.636 C 356.318 403.456,345.622 428.348,345.622 428.938 C 345.622 431.141,350.082 429.089,351.427 426.267 L 352.966 423.041 360.802 423.041 L 368.639 423.041 369.987 426.267 C 371.028 428.759,371.870 429.493,373.686 429.493 C 376.731 429.493,376.944 430.339,369.747 413.825 C 363.206 398.817,360.359 395.678,357.783 400.636 M86.585 406.136 C 90.458 411.059,86.848 415.668,79.120 415.668 L 73.733 415.668 73.733 409.677 L 73.733 403.687 79.196 403.687 C 84.011 403.687,84.887 403.977,86.585 406.136 M255.840 405.206 C 264.661 410.986,260.690 424.885,250.217 424.885 C 241.422 424.885,236.189 416.765,240.104 409.194 C 242.751 404.075,250.944 401.998,255.840 405.206 M292.166 405.530 C 296.967 410.331,293.086 415.668,284.793 415.668 L 279.263 415.668 279.263 409.677 L 279.263 403.687 284.793 403.687 C 289.094 403.687,290.732 404.096,292.166 405.530 M138.048 411.751 L 140.835 418.433 134.947 418.433 L 129.059 418.433 130.794 414.055 C 133.074 408.303,134.813 404.544,135.061 404.835 C 135.171 404.964,136.515 408.076,138.048 411.751 M189.661 411.751 L 192.448 418.433 186.448 418.433 C 182.015 418.433,180.569 418.132,180.912 417.281 C 182.801 412.585,186.476 404.609,186.655 404.816 C 186.775 404.955,188.128 408.076,189.661 411.751 M363.911 411.751 L 366.738 418.433 360.690 418.433 C 356.218 418.433,354.762 418.133,355.105 417.281 C 357.017 412.529,360.671 404.609,360.856 404.816 C 360.981 404.955,362.355 408.076,363.911 411.751 M220.461 443.502 C 219.055 444.908,219.014 448.848,220.405 448.848 C 220.983 448.848,221.964 448.152,222.586 447.302 C 223.644 445.855,223.926 445.855,226.975 447.302 C 231.602 449.498,235.023 447.913,235.023 443.574 C 235.023 442.075,231.615 442.023,231.118 443.513 C 230.826 444.388,229.937 444.388,227.017 443.513 C 222.390 442.127,221.837 442.126,220.461 443.502 M69.124 466.820 L 69.124 482.248 77.650 481.850 C 91.351 481.212,96.313 477.173,96.313 466.657 C 96.313 456.421,91.234 452.360,77.690 451.768 L 69.124 451.393 69.124 466.820 M105.069 466.820 L 105.069 482.028 115.668 482.028 L 126.267 482.028 126.267 479.724 C 126.267 477.436,126.206 477.419,117.972 477.419 L 109.677 477.419 109.677 473.272 L 109.677 469.124 117.051 469.124 C 124.301 469.124,124.424 469.086,124.424 466.820 C 124.424 464.555,124.301 464.516,117.051 464.516 L 109.677 464.516 109.677 460.369 L 109.677 456.221 117.972 456.221 C 126.206 456.221,126.267 456.204,126.267 453.917 L 126.267 451.613 115.668 451.613 L 105.069 451.613 105.069 466.820 M157.783 453.171 C 156.318 455.990,145.622 480.883,145.622 481.473 C 145.622 483.676,150.082 481.624,151.427 478.802 L 152.966 475.576 160.802 475.576 L 168.639 475.576 169.987 478.802 C 171.478 482.372,176.756 483.877,175.642 480.415 C 169.582 461.568,160.566 447.814,157.783 453.171 M189.401 452.992 C 176.789 457.433,176.309 474.101,188.618 480.184 C 192.526 482.116,193.173 482.786,192.619 484.332 C 192.114 485.740,192.418 486.294,193.906 486.677 C 196.988 487.473,196.279 489.821,192.857 490.151 C 188.050 490.614,189.445 494.009,194.443 494.009 C 199.465 494.009,201.833 486.713,197.280 485.268 C 194.567 484.407,195.946 482.418,200.447 480.699 C 205.478 478.778,206.980 477.162,205.147 475.640 C 204.105 474.776,203.218 474.849,201.034 475.979 C 191.276 481.025,180.753 471.344,185.667 461.842 C 188.519 456.328,195.833 454.530,201.458 457.960 C 204.172 459.615,204.345 459.620,205.323 458.053 C 208.035 453.710,197.170 450.256,189.401 452.992 M220.907 452.900 C 213.824 455.524,210.644 460.414,211.252 467.747 C 212.829 486.757,240.870 486.389,242.201 467.341 C 242.960 456.477,231.758 448.879,220.907 452.900 M251.613 466.820 L 251.613 482.028 262.212 482.028 L 272.811 482.028 272.811 479.724 C 272.811 477.436,272.750 477.419,264.516 477.419 L 256.221 477.419 256.221 473.272 L 256.221 469.124 263.594 469.124 C 270.845 469.124,270.968 469.086,270.968 466.820 C 270.968 464.555,270.845 464.516,263.594 464.516 L 256.221 464.516 256.221 460.369 L 256.221 456.221 264.516 456.221 C 272.750 456.221,272.811 456.204,272.811 453.917 L 272.811 451.613 262.212 451.613 L 251.613 451.613 251.613 466.820 M285.725 452.817 C 276.980 455.809,279.051 465.409,289.023 468.105 C 295.730 469.917,298.563 473.418,295.668 476.313 C 293.989 477.992,287.474 477.636,283.794 475.664 C 280.571 473.937,280.500 473.937,279.418 475.670 C 277.116 479.356,288.664 483.326,295.308 481.134 C 304.630 478.057,304.291 468.344,294.763 465.501 C 288.131 463.522,285.714 461.925,285.714 459.522 C 285.714 456.050,292.014 454.951,297.002 457.553 C 299.319 458.762,299.616 458.721,300.501 457.068 C 302.704 452.952,293.266 450.237,285.725 452.817 M87.277 458.024 C 96.976 463.938,91.775 477.419,79.794 477.419 L 73.733 477.419 73.733 466.820 L 73.733 456.221 79.032 456.225 C 82.658 456.227,85.262 456.795,87.277 458.024 M232.798 457.741 C 241.620 463.520,237.648 477.419,227.176 477.419 C 218.381 477.419,213.147 469.300,217.062 461.729 C 219.710 456.609,227.903 454.533,232.798 457.741 M163.911 464.286 L 166.738 470.968 160.802 470.968 L 154.866 470.968 156.601 466.590 C 158.895 460.799,160.620 457.080,160.876 457.369 C 160.990 457.498,162.355 460.611,163.911 464.286 M220.848 497.335 C 219.477 499.054,218.546 500.461,218.779 500.461 C 219.013 500.461,219.784 500.683,220.493 500.955 C 221.202 501.227,223.313 500.233,225.186 498.745 L 228.590 496.039 225.966 495.125 C 223.595 494.298,223.102 494.511,220.848 497.335 M72.822 505.352 C 64.077 508.344,66.148 517.944,76.120 520.639 C 82.827 522.452,85.660 525.953,82.765 528.848 C 81.086 530.527,74.571 530.171,70.891 528.198 C 67.668 526.471,67.597 526.471,66.515 528.205 C 64.213 531.891,75.760 535.861,82.405 533.668 C 91.727 530.592,91.388 520.879,81.860 518.036 C 73.530 515.550,70.917 512.861,73.917 509.862 C 75.425 508.354,81.013 508.478,84.099 510.088 C 86.416 511.296,86.713 511.255,87.598 509.602 C 89.800 505.487,80.362 502.772,72.822 505.352 M104.778 505.434 C 97.695 508.058,94.515 512.948,95.123 520.281 C 96.700 539.291,124.741 538.924,126.072 519.876 C 126.831 509.011,115.629 501.414,104.778 505.434 M135.484 519.355 L 135.484 534.562 144.240 534.562 C 152.965 534.562,152.995 534.554,152.995 532.258 C 152.995 530.020,152.811 529.954,146.544 529.954 L 140.092 529.954 140.092 517.051 L 140.092 504.147 137.788 504.147 L 135.484 504.147 135.484 519.355 M159.447 519.355 L 159.447 534.562 161.751 534.562 L 164.055 534.562 164.055 519.355 L 164.055 504.147 161.751 504.147 L 159.447 504.147 159.447 519.355 M175.115 519.245 L 175.115 534.562 182.719 534.542 C 196.292 534.506,202.304 529.794,202.304 519.192 C 202.304 508.955,197.225 504.895,183.680 504.302 L 175.115 503.928 175.115 519.245 M217.690 505.705 C 216.225 508.525,205.530 533.418,205.530 534.007 C 205.530 536.210,209.989 534.158,211.335 531.336 L 212.873 528.111 220.710 528.111 L 228.547 528.111 229.895 531.336 C 231.386 534.907,236.664 536.412,235.550 532.949 C 229.490 514.103,220.473 500.349,217.690 505.705 M243.318 519.266 L 243.318 534.562 245.622 534.562 C 247.773 534.562,247.926 534.255,247.926 529.954 L 247.926 525.346 252.341 525.346 C 256.665 525.346,256.811 525.440,259.447 529.954 C 261.671 533.761,262.591 534.562,264.742 534.562 C 267.637 534.562,267.561 534.218,263.317 528.132 L 261.082 524.928 263.668 522.512 C 272.582 514.185,266.593 504.825,252.008 504.289 L 243.318 503.970 243.318 519.266 M276.498 519.355 L 276.498 534.562 278.802 534.562 L 281.106 534.562 281.106 519.355 L 281.106 504.147 278.802 504.147 L 276.498 504.147 276.498 519.355 M299.718 505.705 C 298.253 508.525,287.558 533.418,287.558 534.007 C 287.558 536.210,292.017 534.158,293.363 531.336 L 294.901 528.111 302.738 528.111 L 310.574 528.111 311.922 531.336 C 313.414 534.907,318.691 536.412,317.578 532.949 C 311.517 514.103,302.501 500.349,299.718 505.705 M329.043 505.352 C 320.298 508.344,322.369 517.944,332.341 520.639 C 339.048 522.452,341.881 525.953,338.986 528.848 C 337.307 530.527,330.792 530.171,327.112 528.198 C 323.889 526.471,323.818 526.471,322.736 528.205 C 320.434 531.891,331.982 535.861,338.626 533.668 C 347.948 530.592,347.609 520.879,338.081 518.036 C 331.449 516.057,329.032 514.460,329.032 512.057 C 329.032 508.585,335.332 507.486,340.320 510.088 C 342.637 511.296,342.934 511.255,343.819 509.602 C 346.022 505.487,336.583 502.772,329.043 505.352 M116.669 510.275 C 125.491 516.055,121.519 529.954,111.047 529.954 C 102.252 529.954,97.018 521.834,100.933 514.263 C 103.581 509.144,111.774 507.067,116.669 510.275 M194.301 511.363 C 202.443 518.968,197.295 529.954,185.590 529.954 L 179.724 529.954 179.724 519.355 L 179.724 508.756 185.617 508.756 C 190.814 508.756,191.840 509.064,194.301 511.363 M260.829 510.599 C 265.631 515.401,261.750 520.737,253.456 520.737 L 247.926 520.737 247.926 514.747 L 247.926 508.756 253.456 508.756 C 257.757 508.756,259.396 509.165,260.829 510.599 M223.818 516.820 L 226.646 523.502 220.598 523.502 C 216.126 523.502,214.670 523.202,215.013 522.350 C 216.925 517.598,220.579 509.678,220.764 509.885 C 220.889 510.024,222.263 513.145,223.818 516.820 M305.846 516.820 L 308.674 523.502 302.625 523.502 C 298.154 523.502,296.698 523.202,297.041 522.350 C 298.953 517.598,302.607 509.678,302.792 509.885 C 302.916 510.024,304.291 513.145,305.846 516.820 " stroke="none" fill="#034074" fill-rule="evenodd"></path></g></svg>