<svg width="141" height="155" viewBox="0 0 141 155" fill="none" xmlns="http://www.w3.org/2000/svg">
<path fill-rule="evenodd" clip-rule="evenodd" d="M29.0946 124.772C41.12 116.255 46.8225 106.791 43.9788 100.069C43.3347 98.5451 43.5295 98.2506 48.5216 93.1986C49.5916 92.1155 49.7561 91.6025 49.166 91.1887C47.5931 90.0859 45.3755 92.2396 39.6488 100.433C33.4465 109.307 32.004 109.837 37.2406 101.32C40.8219 95.4947 40.839 95.3814 38.1251 95.5849C29.4516 96.234 21.4393 110.506 22.554 123.32C23.0955 129.545 22.531 129.42 29.0946 124.772ZM61.4105 116.377C84.1986 118.248 103.443 104.952 106.084 85.5134C106.907 79.4561 106.645 79.389 100.831 84.1637C95.6335 88.4318 87.2679 94.0512 87.1977 93.3222C87.1762 93.0993 90.818 89.9118 95.2908 86.2377C110.971 73.3581 116.245 66.621 112.631 64.087C112.51 64.0023 110.789 65.9174 108.806 68.3419C102.295 76.3043 102.357 76.2622 97.6532 76.0065C83.5855 75.2439 71.8 83.7441 60.3667 102.901C52.2172 116.556 52.1443 115.616 61.4105 116.377ZM48.0042 65.5433C84.1096 65.5998 104.181 58.6008 111.515 43.396C112.711 40.9172 129.343 40.0052 132.535 42.2432C133.714 43.07 134.015 41.1747 133.033 39.1001C130.673 34.1097 119.022 34.3396 98.7105 39.7777C90.807 41.894 84.4777 43.4294 84.6453 43.1905C85.2491 42.3291 95.8439 38.331 103.976 35.8954L112.277 33.4096L107.217 29.8619C90.8312 18.3735 68.8081 22.8644 50.127 41.5026C45.6189 46.0005 33.983 62.7955 34.1529 64.5596C34.2144 65.2028 38.8088 65.5294 48.0042 65.5433Z" fill="white"/>
</svg>
