<svg width="141" height="155" viewBox="0 0 141 155" fill="none" xmlns="http://www.w3.org/2000/svg">
<path fill-rule="evenodd" clip-rule="evenodd" d="M111.014 30.2283C98.9886 38.7448 93.2861 48.2094 96.1298 54.9312C96.7739 56.4549 96.5791 56.7494 91.587 61.8014C90.5169 62.8845 90.3524 63.3975 90.9426 63.8113C92.5155 64.9141 94.7331 62.7604 100.46 54.5665C106.662 45.6932 108.105 45.1626 102.868 53.6797C99.2867 59.5053 99.2696 59.6186 101.983 59.4151C110.657 58.766 118.669 44.4944 117.555 31.6796C117.013 25.4552 117.578 25.58 111.014 30.2283ZM78.698 38.6231C55.91 36.7522 36.6655 50.0478 34.0245 69.4866C33.2016 75.5439 33.4635 75.611 39.2777 70.8363C44.4751 66.5682 52.8406 60.9488 52.9109 61.6778C52.9323 61.9007 49.2906 65.0882 44.8178 68.7623C29.1378 81.6419 23.8636 88.379 27.4777 90.913C27.5985 90.9977 29.3199 89.0826 31.3021 86.6581C37.8133 78.6957 37.7514 78.7378 42.4553 78.9935C56.523 79.7561 68.3086 71.2559 79.7419 52.0991C87.8914 38.4443 87.9643 39.3839 78.698 38.6231ZM92.1044 89.4567C55.999 89.4002 35.9272 96.3992 28.5936 111.604C27.3979 114.083 10.7659 114.995 7.57387 112.757C6.39462 111.93 6.09387 113.825 7.07508 115.9C9.43524 120.89 21.0861 120.66 41.3981 115.222C49.3016 113.106 55.6308 111.571 55.4633 111.81C54.8594 112.671 44.2647 116.669 36.1324 119.105L27.832 121.59L32.892 125.138C49.2774 136.626 71.3005 132.136 89.9815 113.497C94.4897 108.999 106.126 92.2045 105.956 90.4404C105.894 89.7972 101.3 89.4706 92.1044 89.4567Z" fill="white"/>
</svg>
