<svg width="94" height="134" viewBox="0 0 94 134" fill="none" xmlns="http://www.w3.org/2000/svg">
<path fill-rule="evenodd" clip-rule="evenodd" d="M74.705 15.2977C72.8628 19.7161 73.1469 23.2258 75.4462 24.4585C75.9673 24.738 75.9708 24.8504 75.5296 27.0799C75.4351 27.5579 75.4945 27.7217 75.7623 27.7217C76.4762 27.7217 76.6915 26.7549 76.686 23.5719C76.6801 20.1249 77.0059 19.7229 77.2295 22.9005C77.3827 25.0739 77.4016 25.1065 78.184 24.5575C80.6847 22.8028 80.078 17.6176 77.0049 14.4805C75.5122 12.9568 75.7105 12.8861 74.705 15.2977ZM66.6628 23.3932C59.3296 27.0708 56.3103 34.0547 59.6538 39.6051C60.6957 41.3347 60.7897 41.3043 61.5402 38.9968C62.2112 36.9341 63.5578 33.94 63.7347 34.1172C63.7888 34.1714 63.3607 35.668 62.7835 37.4434C60.7602 43.6673 60.5926 46.3877 62.2329 46.3877C62.2877 46.3877 62.403 45.5738 62.4889 44.5794C62.7714 41.3135 62.7616 41.3357 64.2474 40.5426C68.6907 38.17 70.4634 33.7997 69.8554 26.7156C69.422 21.6661 69.6447 21.8978 66.6628 23.3932ZM12.9372 32.0689C10.4297 32.8405 8.82856 35.3908 8.82856 38.6135C8.82856 40.0099 8.7995 40.0879 8.27539 40.0879C7.97139 40.0879 7.39473 40.1535 6.99445 40.2337L6.26666 40.3796V42.3337V44.2878H7.54761H8.82856V51.4041V58.5206H11.8473H14.8661L14.8472 51.4625L14.8285 44.4043L16.8359 44.3369L18.8437 44.2696V42.062V39.8545H16.7475H14.6513V39.0305C14.6513 36.8116 15.4676 36.1989 18.1262 36.4224L19.6867 36.5533L20.0945 34.5881C20.3187 33.5071 20.4453 32.5304 20.3755 32.4175C19.9265 31.6894 14.9313 31.4552 12.9372 32.0689ZM81.5871 34.1952C70.5888 40.7801 65.9744 46.2736 66.9867 51.578C67.1518 52.4428 62.2855 55.7207 60.8367 55.7207C60.3015 55.7207 60.6143 56.2698 61.3555 56.6313C63.1383 57.5009 66.6345 55.3113 71.6549 50.1808C73.6083 48.1844 75.2066 46.6272 75.2066 46.7201C75.2066 47.0551 72.8358 50.034 70.8809 52.1554L68.8855 54.3207H71.1821C78.6189 54.3207 84.362 49.1244 86.0701 40.8507C86.4822 38.854 86.4398 32.3486 86.0117 31.9198C85.8558 31.7633 84.3881 32.518 81.5871 34.1952ZM23.2687 39.973C21.4119 40.4264 19.7084 41.2069 19.8307 41.5481C19.8876 41.7074 20.1286 42.6253 20.3664 43.5878C20.604 44.5501 20.8087 45.3597 20.8211 45.3865C20.8332 45.4133 21.4677 45.242 22.2306 45.0053C26.334 43.7326 28.1598 44.325 28.1598 46.9292V48.2014L25.7725 48.2981C21.28 48.4798 19.0951 50.2208 19.0817 53.6296C19.0648 57.913 24.0918 60.3643 28.2576 58.1039L29.489 57.4358L30.1086 57.9697C31.0446 58.7765 32.3137 59.0707 34.0525 58.8841C36.297 58.6434 36.3951 58.5224 36.1586 56.291L35.9622 54.4374L35.0305 54.3207L34.0988 54.204L33.9826 49.071C33.8489 43.1838 33.6118 42.3003 31.8171 40.9978C29.9772 39.6626 26.3302 39.2254 23.2687 39.973ZM37.9419 42.0712V44.2878H41.4355C43.3568 44.2878 44.9291 44.3546 44.9291 44.4367C44.9291 44.5184 43.2522 46.9351 41.2025 49.8066L37.4759 55.028V56.7743V58.5206H45.0454H52.6148V56.4206V54.3207H48.539C46.2972 54.3207 44.4631 54.262 44.4631 54.1903C44.4631 54.1187 46.1926 51.6352 48.3062 48.672L52.1491 43.2838V41.5691V39.8545H45.0454H37.9419V42.0712ZM28.1123 52.8506L28.1815 54.2969L27.2218 54.5559C25.4748 55.027 24.368 54.1435 24.7574 52.5888C24.9482 51.8268 26.0576 51.2704 27.2281 51.3491L28.0433 51.4041L28.1123 52.8506ZM47.1026 62.9035C46.4405 63.1412 45.5166 63.6278 45.0494 63.985C44.0949 64.7141 44.1424 64.7224 43.8357 63.7703L43.61 63.0703L41.1254 63.0043L38.6406 62.9379V72.2787V81.6197H41.6682H44.6961V75.0055V68.3909L45.6599 67.9555C47.14 67.2869 48.5824 67.3715 49.265 68.1667L49.8199 68.813V75.2163V81.6197H52.8478H55.8754V75.0055V68.3909L56.8579 67.9474C58.2346 67.3254 59.6801 67.3614 60.3525 68.0348C60.8756 68.5585 60.884 68.6555 60.9517 75.0928L61.0202 81.6197H64.0549H67.0896L67.0064 74.2116C66.9145 66.0254 66.8316 65.5409 65.2767 64.0744C63.1874 62.1038 58.8217 62.0258 55.7837 63.9047L54.6437 64.6095L54.0368 64.0273C52.5976 62.6463 49.3057 62.1129 47.1026 62.9035ZM17.4462 69.7086C17.4462 77.1254 17.5857 78.2985 18.6412 79.7585C20.4059 82.1987 24.928 82.6417 28.02 80.6775C28.6389 80.2843 29.1711 79.9942 29.2029 80.0329C29.2345 80.0714 29.3621 80.418 29.486 80.803L29.7116 81.503L32.1964 81.5693L34.6813 81.6354V72.2946V62.9536H31.6534H28.6255V69.4983V76.0426L27.6357 76.4928C26.3451 77.0798 24.8815 77.0859 24.1681 76.5074L23.6182 76.0616L23.5495 69.5076L23.481 62.9536H20.4635H17.4462V69.7086ZM13.8361 78.9732C13.3236 79.0142 12.0399 79.1112 10.9831 79.1881L9.06155 79.3284V90.986V102.643L10.5376 103.336C16.6949 106.222 23.5583 104.594 25.8546 99.7025C29.6616 91.5931 23.1972 82.3263 16.3917 86.1368C15.7865 86.4755 15.2523 86.753 15.2042 86.753C15.1562 86.753 15.1171 84.968 15.1171 82.7863C15.1171 80.6048 15.0385 78.8375 14.9424 78.859C14.8464 78.8805 14.3486 78.9319 13.8361 78.9732ZM80.1025 80.6281C80.106 81.0936 80.9736 95.8345 81.0226 96.2608C81.0264 96.293 82.0202 96.3193 83.2314 96.3193H85.4335L85.55 95.5609C85.6678 94.7961 86.3978 81.8194 86.3902 80.6281L86.3862 79.9863H83.2418H80.0977L80.1025 80.6281ZM35.3633 85.6591C26.4376 88.1773 26.7702 102.537 35.799 104.457C38.3252 104.994 41.993 104.619 44.3226 103.587L45.3574 103.128L44.7952 101.299C44.4859 100.292 44.1877 99.3499 44.1326 99.2038C44.0613 99.0154 43.5734 99.0663 42.4478 99.379C38.4372 100.493 35.4942 99.5848 35.005 97.0821L34.8577 96.3282L40.0514 96.2654L45.245 96.2026L45.4492 95.5026C47.3629 88.9365 42.0673 83.768 35.3633 85.6591ZM56.5026 85.813C55.8868 86.054 55.0369 86.5158 54.6142 86.8388L53.8452 87.4264L53.57 86.5062L53.2948 85.5862H50.856H48.4172L48.4781 94.9776L48.539 104.369H51.4503H54.3617L54.4236 97.7643L54.4853 91.16L55.4716 90.7114C57.146 89.9501 58.3696 90.1182 59.4145 91.2534C59.4393 91.2805 59.5179 94.2427 59.5891 97.8357L59.7185 104.369H62.6299H65.541L65.6029 97.7643L65.6649 91.16L66.6511 90.7114C68.0291 90.0848 69.2052 90.1212 70.0116 90.8154L70.6651 91.3782L70.7816 97.8734L70.8981 104.369H73.8092H76.7206V97.2524C76.7206 88.9415 76.6144 88.3509 74.8382 86.7849C72.6147 84.8239 68.2164 84.8444 65.3007 86.8294L64.4216 87.4279L63.5121 86.6479C61.9592 85.3163 58.7484 84.9341 56.5026 85.813ZM39.4462 90.4253C39.8874 90.902 40.0381 91.3174 40.0381 92.0587V93.0526H37.4759C34.6211 93.0526 34.6191 93.0513 35.2726 91.4703C36.0123 89.6802 38.2403 89.1223 39.4462 90.4253ZM18.7208 90.3519C19.861 90.8291 20.5234 92.2392 20.6565 94.4725C20.8898 98.3793 19.6339 100.144 16.7182 100.006L15.2336 99.9357L15.1704 95.3545L15.1075 90.7731L15.9856 90.4083C17.096 89.9471 17.7229 89.9342 18.7208 90.3519ZM81.8247 98.5175C79.5569 99.5066 79.4184 103.466 81.6195 104.387C84.2028 105.469 86.4658 104.037 86.4799 101.313C86.4926 98.8385 84.2188 97.4732 81.8247 98.5175Z" fill="white"/>
</svg>
