<svg width="400" height="559" viewBox="0 0 400 559" fill="none" xmlns="http://www.w3.org/2000/svg">
<path fill-rule="evenodd" clip-rule="evenodd" d="M294.789 13.5971C287.499 31.0501 288.623 44.9141 297.722 49.7831C299.784 50.8871 299.798 51.3311 298.052 60.1381C297.678 62.0261 297.913 62.6731 298.973 62.6731C301.798 62.6731 302.65 58.8541 302.628 46.2811C302.605 32.6651 303.894 31.0771 304.779 43.6291C305.385 52.2141 305.46 52.3431 308.556 50.1741C318.452 43.2431 316.051 22.7611 303.89 10.3691C297.983 4.3501 298.768 4.07109 294.789 13.5971ZM262.964 45.5751C233.945 60.1021 221.997 87.6891 235.228 109.614C239.351 116.446 239.723 116.326 242.693 107.211C245.348 99.0631 250.677 87.2361 251.377 87.9361C251.591 88.1501 249.897 94.0621 247.613 101.075C239.606 125.66 238.943 136.406 245.434 136.406C245.651 136.406 246.107 133.191 246.447 129.263C247.565 116.362 247.526 116.45 253.406 113.317C270.989 103.945 278.004 86.6821 275.598 58.6991C273.883 38.7531 274.764 39.6681 262.964 45.5751ZM50.36 79.8451C40.437 82.8931 34.101 92.9671 34.101 105.697C34.101 111.213 33.986 111.521 31.912 111.521C30.709 111.521 28.427 111.78 26.843 112.097L23.963 112.673V120.392V128.111H29.032H34.101V156.221V184.332H46.047H57.993L57.918 156.452L57.844 128.571L65.788 128.305L73.733 128.039V119.319V110.599H65.438H57.143V107.344C57.143 98.5791 60.373 96.1591 70.894 97.0421L77.069 97.5591L78.683 89.7961C79.57 85.5261 80.071 81.6681 79.795 81.2221C78.018 78.3461 58.251 77.4211 50.36 79.8451ZM322.023 88.2441C278.5 114.255 260.24 135.955 264.246 156.908C264.899 160.324 245.642 173.272 239.909 173.272C237.791 173.272 239.029 175.441 241.962 176.869C249.017 180.304 262.852 171.655 282.719 151.389C290.449 143.503 296.774 137.352 296.774 137.719C296.774 139.042 287.392 150.809 279.656 159.189L271.76 167.742H280.848C310.277 167.742 333.004 147.216 339.763 114.534C341.394 106.647 341.226 80.9501 339.532 79.2561C338.915 78.6381 333.107 81.6191 322.023 88.2441ZM91.244 111.067C83.896 112.858 77.155 115.941 77.639 117.289C77.864 117.918 78.818 121.544 79.759 125.346C80.699 129.147 81.509 132.345 81.558 132.451C81.606 132.557 84.117 131.88 87.136 130.945C103.374 125.918 110.599 128.258 110.599 138.545V143.57L101.152 143.952C83.374 144.67 74.728 151.547 74.675 165.012C74.608 181.932 94.501 191.615 110.986 182.686L115.859 180.047L118.311 182.156C122.015 185.343 127.037 186.505 133.918 185.768C142.8 184.817 143.188 184.339 142.252 175.525L141.475 168.203L137.788 167.742L134.101 167.281L133.641 147.005C133.112 123.75 132.174 120.26 125.072 115.115C117.791 109.841 103.359 108.114 91.244 111.067ZM149.309 119.355V128.111H163.134C170.737 128.111 176.959 128.375 176.959 128.699C176.959 129.022 170.323 138.568 162.212 149.911L147.465 170.536V177.434V184.332H177.419H207.373V176.037V167.742H191.244C182.373 167.742 175.115 167.51 175.115 167.227C175.115 166.944 181.959 157.134 190.323 145.429L205.53 124.145V117.372V110.599H177.419H149.309V119.355ZM110.411 161.935L110.685 167.648L106.887 168.671C99.974 170.532 95.594 167.042 97.135 160.901C97.89 157.891 102.28 155.693 106.912 156.004L110.138 156.221L110.411 161.935ZM185.56 201.645C182.94 202.584 179.284 204.506 177.435 205.917C173.658 208.797 173.846 208.83 172.632 205.069L171.739 202.304L161.907 202.043L152.074 201.781V238.678V275.576H164.055H176.037V249.449V223.321L179.851 221.601C185.708 218.96 191.416 219.294 194.117 222.435L196.313 224.988V250.282V275.576H208.295H220.276V249.449V223.321L224.164 221.569C229.612 219.112 235.332 219.254 237.993 221.914C240.063 223.983 240.096 224.366 240.364 249.794L240.635 275.576H252.644H264.653L264.324 246.313C263.96 213.977 263.632 212.063 257.479 206.27C249.211 198.486 231.935 198.178 219.913 205.6L215.402 208.384L213 206.084C207.305 200.629 194.278 198.522 185.56 201.645ZM68.203 228.526C68.203 257.823 68.755 262.457 72.932 268.224C79.915 277.863 97.81 279.613 110.046 271.854C112.495 270.301 114.601 269.155 114.727 269.308C114.852 269.46 115.357 270.829 115.847 272.35L116.74 275.115L126.573 275.377L136.406 275.638V238.741V201.843H124.424H112.442V227.695V253.546L108.525 255.324C103.418 257.643 97.626 257.667 94.803 255.382L92.627 253.621L92.355 227.732L92.084 201.843H80.143H68.203V228.526ZM53.917 265.122C51.889 265.284 46.809 265.667 42.627 265.971L35.023 266.525V312.574V358.622L40.864 361.356C65.23 372.758 92.39 366.327 101.477 347.005C116.542 314.972 90.961 278.367 64.03 293.419C61.635 294.757 59.521 295.853 59.331 295.853C59.141 295.853 58.986 288.802 58.986 280.184C58.986 271.567 58.675 264.586 58.295 264.671C57.915 264.756 55.945 264.959 53.917 265.122ZM316.148 271.659C316.162 273.498 319.595 331.726 319.789 333.41C319.804 333.537 323.737 333.641 328.53 333.641H337.244L337.705 330.645C338.171 327.624 341.06 276.365 341.03 271.659L341.014 269.124H328.571H316.129L316.148 271.659ZM139.105 291.532C103.784 301.479 105.1 358.203 140.829 365.784C150.826 367.905 165.34 366.427 174.559 362.349L178.654 360.538L176.429 353.31C175.205 349.335 174.025 345.612 173.807 345.035C173.525 344.291 171.594 344.492 167.14 345.727C151.269 350.127 139.623 346.54 137.687 336.654L137.104 333.676L157.657 333.428L178.209 333.18L179.017 330.415C186.59 304.478 165.634 284.062 139.105 291.532ZM222.758 292.14C220.321 293.092 216.958 294.916 215.285 296.192L212.242 298.513L211.153 294.878L210.064 291.244H200.413H190.762L191.003 328.341L191.244 365.438H202.765H214.286L214.531 339.349L214.775 313.261L218.678 311.489C225.304 308.482 230.146 309.146 234.281 313.63C234.379 313.737 234.69 325.438 234.972 339.631L235.484 365.438H247.005H258.525L258.77 339.349L259.015 313.261L262.918 311.489C268.371 309.014 273.025 309.158 276.216 311.9L278.802 314.123L279.263 339.78L279.724 365.438H291.244H302.765V337.327C302.765 304.498 302.345 302.165 295.316 295.979C286.517 288.233 269.112 288.314 257.574 296.155L254.095 298.519L250.496 295.438C244.351 290.178 231.645 288.668 222.758 292.14ZM155.262 310.359C157.008 312.242 157.604 313.883 157.604 316.811V320.737H147.465C136.168 320.737 136.16 320.732 138.746 314.487C141.673 307.416 150.49 305.212 155.262 310.359ZM73.247 310.069C77.759 311.954 80.38 317.524 80.907 326.346C81.83 341.778 76.86 348.748 65.322 348.204L59.447 347.926L59.197 329.83L58.948 311.733L62.423 310.292C66.817 308.47 69.298 308.419 73.247 310.069ZM322.963 342.324C313.989 346.231 313.441 361.871 322.151 365.51C332.374 369.782 341.329 364.126 341.385 353.365C341.435 343.592 332.437 338.199 322.963 342.324ZM69.124 414.286V429.493H71.429C73.571 429.493 73.733 429.178 73.733 425.009V420.524L80.368 420.049C88.929 419.437 92.166 416.495 92.166 409.328C92.166 401.559 88.123 399.078 75.461 399.078H69.124V414.286ZM100.461 414.286V429.493H109.217C117.942 429.493 117.972 429.485 117.972 427.189C117.972 424.951 117.788 424.885 111.521 424.885H105.069V411.982V399.078H102.765H100.461V414.286ZM130.73 403.393C129.663 405.835 126.77 412.368 124.303 417.91C119.121 429.546 119.132 429.493 121.949 429.493C123.48 429.493 124.517 428.582 125.621 426.267L127.159 423.041H134.996H142.832L144.18 426.267C145.234 428.789 146.054 429.493 147.941 429.493C150.869 429.493 151.1 430.354 143.489 412.903C136.503 396.885 134.294 395.238 130.73 403.393ZM148.387 401.382C148.387 403.561 148.664 403.687 153.456 403.687H158.525V416.59V429.493H160.829H163.134V416.59V403.687H167.742C172.043 403.687 172.35 403.533 172.35 401.382V399.078H160.369H148.387V401.382ZM183.589 400.636C182.124 403.456 171.429 428.348 171.429 428.938C171.429 431.141 175.888 429.089 177.234 426.267L178.772 423.041H186.609H194.445L195.793 426.267C197.285 429.837 202.562 431.342 201.449 427.88C195.388 409.033 186.372 395.28 183.589 400.636ZM209.217 414.286V429.493H211.521C213.742 429.493 213.825 429.278 213.825 423.502V417.512H220.737C227.496 417.512 227.65 417.46 227.65 415.207C227.65 412.954 227.496 412.903 220.737 412.903H213.825V408.295V403.687H221.198C228.449 403.687 228.571 403.648 228.571 401.382V399.078H218.894H209.217V414.286ZM243.922 400.374C227.739 406.366 232.36 428.938 249.77 428.938C259.096 428.938 264.607 423.905 265.242 414.807C266.003 403.928 254.801 396.346 243.922 400.374ZM274.654 414.176V429.493H276.959C279.109 429.493 279.263 429.186 279.263 424.885V420.276H283.677C288.002 420.276 288.147 420.371 290.783 424.885C293.007 428.692 293.927 429.493 296.079 429.493C298.974 429.493 298.898 429.149 294.653 423.063L292.418 419.858L295.004 417.443C303.899 409.134 297.998 399.879 283.399 399.241L274.654 398.858V414.176ZM307.834 414.286C307.834 428.799 307.917 429.493 309.649 429.493C311.342 429.493 311.481 428.732 311.723 418.203L311.982 406.912L316.829 416.359C320.203 422.937 322.169 425.806 323.301 425.806C324.438 425.806 326.358 422.968 329.69 416.359L334.455 406.912L334.508 418.203L334.562 429.493H336.866H339.171V414.286V399.078H336.413C333.823 399.078 333.34 399.708 328.447 409.447L323.238 419.816L318.151 409.447C313.452 399.868 312.865 399.078 310.449 399.078H307.834V414.286ZM357.783 400.636C356.318 403.456 345.622 428.348 345.622 428.938C345.622 431.141 350.082 429.089 351.427 426.267L352.966 423.041H360.802H368.639L369.987 426.267C371.028 428.759 371.87 429.493 373.686 429.493C376.731 429.493 376.944 430.339 369.747 413.825C363.206 398.817 360.359 395.678 357.783 400.636ZM86.585 406.136C90.458 411.059 86.848 415.668 79.12 415.668H73.733V409.677V403.687H79.196C84.011 403.687 84.887 403.977 86.585 406.136ZM255.84 405.206C264.661 410.986 260.69 424.885 250.217 424.885C241.422 424.885 236.189 416.765 240.104 409.194C242.751 404.075 250.944 401.998 255.84 405.206ZM292.166 405.53C296.967 410.331 293.086 415.668 284.793 415.668H279.263V409.677V403.687H284.793C289.094 403.687 290.732 404.096 292.166 405.53ZM138.048 411.751L140.835 418.433H134.947H129.059L130.794 414.055C133.074 408.303 134.813 404.544 135.061 404.835C135.171 404.964 136.515 408.076 138.048 411.751ZM189.661 411.751L192.448 418.433H186.448C182.015 418.433 180.569 418.132 180.912 417.281C182.801 412.585 186.476 404.609 186.655 404.816C186.775 404.955 188.128 408.076 189.661 411.751ZM363.911 411.751L366.738 418.433H360.69C356.218 418.433 354.762 418.133 355.105 417.281C357.017 412.529 360.671 404.609 360.856 404.816C360.981 404.955 362.355 408.076 363.911 411.751ZM220.461 443.502C219.055 444.908 219.014 448.848 220.405 448.848C220.983 448.848 221.964 448.152 222.586 447.302C223.644 445.855 223.926 445.855 226.975 447.302C231.602 449.498 235.023 447.913 235.023 443.574C235.023 442.075 231.615 442.023 231.118 443.513C230.826 444.388 229.937 444.388 227.017 443.513C222.39 442.127 221.837 442.126 220.461 443.502ZM69.124 466.82V482.248L77.65 481.85C91.351 481.212 96.313 477.173 96.313 466.657C96.313 456.421 91.234 452.36 77.69 451.768L69.124 451.393V466.82ZM105.069 466.82V482.028H115.668H126.267V479.724C126.267 477.436 126.206 477.419 117.972 477.419H109.677V473.272V469.124H117.051C124.301 469.124 124.424 469.086 124.424 466.82C124.424 464.555 124.301 464.516 117.051 464.516H109.677V460.369V456.221H117.972C126.206 456.221 126.267 456.204 126.267 453.917V451.613H115.668H105.069V466.82ZM157.783 453.171C156.318 455.99 145.622 480.883 145.622 481.473C145.622 483.676 150.082 481.624 151.427 478.802L152.966 475.576H160.802H168.639L169.987 478.802C171.478 482.372 176.756 483.877 175.642 480.415C169.582 461.568 160.566 447.814 157.783 453.171ZM189.401 452.992C176.789 457.433 176.309 474.101 188.618 480.184C192.526 482.116 193.173 482.786 192.619 484.332C192.114 485.74 192.418 486.294 193.906 486.677C196.988 487.473 196.279 489.821 192.857 490.151C188.05 490.614 189.445 494.009 194.443 494.009C199.465 494.009 201.833 486.713 197.28 485.268C194.567 484.407 195.946 482.418 200.447 480.699C205.478 478.778 206.98 477.162 205.147 475.64C204.105 474.776 203.218 474.849 201.034 475.979C191.276 481.025 180.753 471.344 185.667 461.842C188.519 456.328 195.833 454.53 201.458 457.96C204.172 459.615 204.345 459.62 205.323 458.053C208.035 453.71 197.17 450.256 189.401 452.992ZM220.907 452.9C213.824 455.524 210.644 460.414 211.252 467.747C212.829 486.757 240.87 486.389 242.201 467.341C242.96 456.477 231.758 448.879 220.907 452.9ZM251.613 466.82V482.028H262.212H272.811V479.724C272.811 477.436 272.75 477.419 264.516 477.419H256.221V473.272V469.124H263.594C270.845 469.124 270.968 469.086 270.968 466.82C270.968 464.555 270.845 464.516 263.594 464.516H256.221V460.369V456.221H264.516C272.75 456.221 272.811 456.204 272.811 453.917V451.613H262.212H251.613V466.82ZM285.725 452.817C276.98 455.809 279.051 465.409 289.023 468.105C295.73 469.917 298.563 473.418 295.668 476.313C293.989 477.992 287.474 477.636 283.794 475.664C280.571 473.937 280.5 473.937 279.418 475.67C277.116 479.356 288.664 483.326 295.308 481.134C304.63 478.057 304.291 468.344 294.763 465.501C288.131 463.522 285.714 461.925 285.714 459.522C285.714 456.05 292.014 454.951 297.002 457.553C299.319 458.762 299.616 458.721 300.501 457.068C302.704 452.952 293.266 450.237 285.725 452.817ZM87.277 458.024C96.976 463.938 91.775 477.419 79.794 477.419H73.733V466.82V456.221L79.032 456.225C82.658 456.227 85.262 456.795 87.277 458.024ZM232.798 457.741C241.62 463.52 237.648 477.419 227.176 477.419C218.381 477.419 213.147 469.3 217.062 461.729C219.71 456.609 227.903 454.533 232.798 457.741ZM163.911 464.286L166.738 470.968H160.802H154.866L156.601 466.59C158.895 460.799 160.62 457.08 160.876 457.369C160.99 457.498 162.355 460.611 163.911 464.286ZM220.848 497.335C219.477 499.054 218.546 500.461 218.779 500.461C219.013 500.461 219.784 500.683 220.493 500.955C221.202 501.227 223.313 500.233 225.186 498.745L228.59 496.039L225.966 495.125C223.595 494.298 223.102 494.511 220.848 497.335ZM72.822 505.352C64.077 508.344 66.148 517.944 76.12 520.639C82.827 522.452 85.66 525.953 82.765 528.848C81.086 530.527 74.571 530.171 70.891 528.198C67.668 526.471 67.597 526.471 66.515 528.205C64.213 531.891 75.76 535.861 82.405 533.668C91.727 530.592 91.388 520.879 81.86 518.036C73.53 515.55 70.917 512.861 73.917 509.862C75.425 508.354 81.013 508.478 84.099 510.088C86.416 511.296 86.713 511.255 87.598 509.602C89.8 505.487 80.362 502.772 72.822 505.352ZM104.778 505.434C97.695 508.058 94.515 512.948 95.123 520.281C96.7 539.291 124.741 538.924 126.072 519.876C126.831 509.011 115.629 501.414 104.778 505.434ZM135.484 519.355V534.562H144.24C152.965 534.562 152.995 534.554 152.995 532.258C152.995 530.02 152.811 529.954 146.544 529.954H140.092V517.051V504.147H137.788H135.484V519.355ZM159.447 519.355V534.562H161.751H164.055V519.355V504.147H161.751H159.447V519.355ZM175.115 519.245V534.562L182.719 534.542C196.292 534.506 202.304 529.794 202.304 519.192C202.304 508.955 197.225 504.895 183.68 504.302L175.115 503.928V519.245ZM217.69 505.705C216.225 508.525 205.53 533.418 205.53 534.007C205.53 536.21 209.989 534.158 211.335 531.336L212.873 528.111H220.71H228.547L229.895 531.336C231.386 534.907 236.664 536.412 235.55 532.949C229.49 514.103 220.473 500.349 217.69 505.705ZM243.318 519.266V534.562H245.622C247.773 534.562 247.926 534.255 247.926 529.954V525.346H252.341C256.665 525.346 256.811 525.44 259.447 529.954C261.671 533.761 262.591 534.562 264.742 534.562C267.637 534.562 267.561 534.218 263.317 528.132L261.082 524.928L263.668 522.512C272.582 514.185 266.593 504.825 252.008 504.289L243.318 503.97V519.266ZM276.498 519.355V534.562H278.802H281.106V519.355V504.147H278.802H276.498V519.355ZM299.718 505.705C298.253 508.525 287.558 533.418 287.558 534.007C287.558 536.21 292.017 534.158 293.363 531.336L294.901 528.111H302.738H310.574L311.922 531.336C313.414 534.907 318.691 536.412 317.578 532.949C311.517 514.103 302.501 500.349 299.718 505.705ZM329.043 505.352C320.298 508.344 322.369 517.944 332.341 520.639C339.048 522.452 341.881 525.953 338.986 528.848C337.307 530.527 330.792 530.171 327.112 528.198C323.889 526.471 323.818 526.471 322.736 528.205C320.434 531.891 331.982 535.861 338.626 533.668C347.948 530.592 347.609 520.879 338.081 518.036C331.449 516.057 329.032 514.46 329.032 512.057C329.032 508.585 335.332 507.486 340.32 510.088C342.637 511.296 342.934 511.255 343.819 509.602C346.022 505.487 336.583 502.772 329.043 505.352ZM116.669 510.275C125.491 516.055 121.519 529.954 111.047 529.954C102.252 529.954 97.018 521.834 100.933 514.263C103.581 509.144 111.774 507.067 116.669 510.275ZM194.301 511.363C202.443 518.968 197.295 529.954 185.59 529.954H179.724V519.355V508.756H185.617C190.814 508.756 191.84 509.064 194.301 511.363ZM260.829 510.599C265.631 515.401 261.75 520.737 253.456 520.737H247.926V514.747V508.756H253.456C257.757 508.756 259.396 509.165 260.829 510.599ZM223.818 516.82L226.646 523.502H220.598C216.126 523.502 214.67 523.202 215.013 522.35C216.925 517.598 220.579 509.678 220.764 509.885C220.889 510.024 222.263 513.145 223.818 516.82ZM305.846 516.82L308.674 523.502H302.625C298.154 523.502 296.698 523.202 297.041 522.35C298.953 517.598 302.607 509.678 302.792 509.885C302.916 510.024 304.291 513.145 305.846 516.82Z" fill="white"/>
</svg>
